/* XPM */
static char * HxSurfacePathEditor_xpm[] = {
"20 20 8 1",                               
" 	c None",                           
"+	c #020204",                        
"@	c #060604",
"#	c #0A0A0C",
"$	c #FE0604",
"%	c #0E0E0C",
"&	c #161614",
"*	c #121214",
"       +    +   +   ",
"+      +     +  +   ",
" +     +      + + ++",
"  +   +        +++  ",
"   +  +     +++++   ",
"    + +  @@@   + +  ",
"     ++@#      +  + ",
"  $$$$$$      @    +",
"$$$$ @ $$     #     ",
"     #  $$    %     ",
"     #   $$   %    $",
"    @     $$ &   $$$",
"+   @      $$% $$$$ ",
" +  @       $$$$$   ",
"  + @    &&*#$$     ",
"   ++ #%%    ##     ",
"   +++      %  @    ",
"++++ +      #   +   ",
"   +  +     +    +  ",
"   +   +    +     + "};
                     